<?xml version="1.0" standalone="no"?> <!DOCTYPE svg PUBLIC "-//W3C//DTD SVG 1.0//EN" "http://www.w3.org/TR/2001/REC-SVG-20010904/DTD/svg10.dtd" > <svg xmlns="http://www.w3.org/2000/svg" width="100%" height="100%">
<defs >
<font id="repbdit_" horiz-adv-x="595" ><font-face
    font-family="Replica-BoldItalic"
    units-per-em="1000"
    panose-1="2 0 6 3 3 0 0 2 0 4"
    ascent="900"
    descent="-210"
    alphabetic="0" />
<missing-glyph horiz-adv-x="660" d="M537 10L527 0H47L37 10L157 690L167 700H647L657 690L537 10ZM183 660L74 40L84 30H502L512 40L621 660L611 670H193L183 660Z" />
<glyph unicode=" " glyph-name="space" horiz-adv-x="260" />
<glyph unicode="!" glyph-name="exclam" horiz-adv-x="400" d="M309 470L249 240L239 230H157L147 240L167 470L206 690L216 700H338L348 690L309 470ZM238 10L228 0H86L76 10L99 140L109 150H251L261 140L238 10Z" />
<glyph unicode="&quot;" glyph-name="quotedbl" horiz-adv-x="540" d="M487 400L477 390H355L345 400L396 690L406 700H528L538 690L487 400ZM247 400L237 390H115L105 400L156 690L166 700H288L298 690L247 400Z" />
<glyph unicode="#" glyph-name="numbersign" horiz-adv-x="650" d="M563 210L553 200H464L454 190L372 10L362 0H285L275 10L293 110L327 190L317 200H231L221 190L139 10L129 0H52L42 10L60 110L94 190L84 200H33L23 210L37 290L47 300H135L145 310L179 390L169
400H118L108 410L122 490L132 500H220L230 510L312 690L322 700H399L409 690L392 590L357 510L367 500H453L463 510L545 690L555 700H632L642 690L625 590L590 510L600 500H652L662 490L648 410L638 400H549L539 390L505 310L515 300H567L577 290L563 210ZM306
390L272 310L282 300H368L378 310L412 390L402 400H316L306 390Z" />
<glyph unicode="$" glyph-name="dollar" horiz-adv-x="660" d="M613 218Q613 163 591 120T531 51T445 11T343 -8L333 -19L322 -80L312 -90H230L220 -80L232 -13L221 -2Q128 15 79 69T30 195L32 220L42 230H164L174 220Q172 220 172 195Q172 131 247 116L257 126L288
306L278 316Q93 365 93 506Q93 557 115 596T176 658T257 694T351 709L361 719L372 780L382 790H464L474 780L462 711L471 701Q555 684 596 637T638 525L636 500L626 490H504L494 500Q496 500 496 525Q496 570 447 582L437 572L410 418L419 408Q514 384 563 341T613
218ZM386 278L359 124L368 114Q473 133 473 218Q473 245 456 260T396 288L386 278ZM336 577L326 587Q235 573 235 506Q235 481 250 465T303 436L313 446L336 577Z" />
<glyph unicode="%" glyph-name="percent" horiz-adv-x="940" d="M214 488Q214 440 253 440Q287 440 303 475T320 552Q320 600 281 600Q247 600 231 565T214 488ZM760 590L290 10L270 0H207L197 10L215 110L684 690L704 700H767L777 690L760 590ZM82 488Q82 581
136 645T281 710Q359 710 405 664T452 552Q452 459 398 395T253 330Q175 330 129 376T82 488ZM654 148Q654 100 693 100Q727 100 743 135T760 212Q760 260 721 260Q687 260 671 225T654 148ZM522 148Q522 241 576 305T721 370Q799 370 845 324T892 212Q892 119
838 55T693 -10Q615 -10 569 36T522 148Z" />
<glyph unicode="&amp;" glyph-name="ampersand" horiz-adv-x="760" d="M647 10L637 0H601L581 10L540 60H530Q430 -10 305 -10Q196 -10 132 46T67 184Q67 258 114 310T250 400L252 410Q198 474 198 528Q198 613 260 661T410 710Q486 710 535 666T584 557Q584 450
458 373L456 363L541 260H551Q580 302 592 390L602 400H714L724 390Q711 309 694 259T634 160L632 150L665 110L647 10ZM377 460Q401 473 413 481T439 507T452 547Q452 568 437 579T400 590Q372 590 351 574T330 528Q330 504 367 460H377ZM452 155L454 165L334
310H324Q209 267 209 189Q209 155 234 133T305 110Q398 110 452 155Z" />
<glyph unicode="&apos;" glyph-name="quotesingle" horiz-adv-x="300" d="M247 400L237 390H115L105 400L156 690L166 700H288L298 690L247 400Z" />
<glyph unicode="(" glyph-name="parenleft" horiz-adv-x="450" d="M78 250Q89 314 95 344T117 415T145 474T194 531T265 599T371 690L391 700H437L447 690L430 590Q379 547 359 529T311 482T275 439T253 392T235 331T220 250Q202 150 202 112Q202 62 223 26T310
-90L292 -190L282 -200H264L244 -190Q163 -92 135 -56T83 26T60 112Q60 150 78 250Z" />
<glyph unicode=")" glyph-name="parenright" horiz-adv-x="450" d="M372 250Q361 186 355 156T333 85T305 26T256 -31T185 -99T79 -190L59 -200H13L3 -190L20 -90Q71 -47 91 -29T139 18T175 61T197 108T215 169T230 250Q248 350 248 388Q248 438 227 474T140 590L158
690L168 700H186L206 690Q287 592 315 556T367 474T390 388Q390 350 372 250Z" />
<glyph unicode="*" glyph-name="asterisk" horiz-adv-x="590" d="M340 270H330L320 280V440H310L200 330H190L180 340V350L290 460V470H130L120 480V490L130 500H290V510L180 620V630L190 640H200L310 530H320V690L330 700H340L350 690V530H360L470 640H480L490
630V620L380 510V500H540L550 490V480L540 470H380V460L490 350V340L480 330H470L360 440H350V280L340 270Z" />
<glyph unicode="+" glyph-name="plus" horiz-adv-x="620" d="M551 200L541 190H368L358 180L328 10L318 0H216L206 10L236 180L226 190H61L51 200L68 300L78 310H251L261 320L291 490L301 500H403L413 490L383 320L393 310H558L568 300L551 200Z" />
<glyph unicode="," glyph-name="comma" horiz-adv-x="320" d="M197 0L181 -30L83 -130L63 -140H-7L-4 -120L74 -20L76 -10L66 0H46L36 10L59 140L69 150H211L221 140L197 0Z" />
<glyph unicode="-" glyph-name="hyphen" horiz-adv-x="430" d="M364 210L354 200H62L52 210L69 310L79 320H371L381 310L364 210Z" />
<glyph unicode="." glyph-name="period" horiz-adv-x="320" d="M198 10L188 0H48L36 10L59 140L69 150H211L221 140L198 10Z" />
<glyph unicode="/" glyph-name="slash" horiz-adv-x="510" d="M530 590L99 10L89 0H7L-3 10L15 110L445 690L455 700H537L547 690L530 590Z" />
<glyph unicode="0" glyph-name="zero" horiz-adv-x="600" d="M184 230Q184 166 206 138T274 110Q323 110 360 150T415 251T442 367T450 470Q450 534 428 562T360 590Q311 590 274 550T219 449T192 333T184 230ZM45 230Q45 293 53 354T83 482T140 597T231 678T360
710Q462 710 525 651T589 470Q589 407 581 346T551 218T494 103T403 22T274 -10Q172 -10 109 49T45 230Z" />
<glyph unicode="1" glyph-name="one" horiz-adv-x="410" d="M278 0H156L146 10L234 507H224L146 440H84L74 450L91 550L256 690L276 700H398L408 690L288 10L278 0Z" />
<glyph unicode="2" glyph-name="two" horiz-adv-x="570" d="M487 10L477 0H7L-3 10L17 120L30 140L237 290Q271 314 285 325T330 362T374 408T401 457T414 516Q414 590 340 590Q284 590 258 565T223 490L213 480H91L81 490Q119 710 340 710Q445 710 499 653T554
516Q554 476 543 441T517 381T472 326T419 279T354 230L216 130L215 120H495L505 110L487 10Z" />
<glyph unicode="3" glyph-name="three" horiz-adv-x="570" d="M531 264Q531 146 448 68T245 -10Q135 -10 76 46T16 175Q16 184 17 190L27 200H149L159 190Q158 184 158 175Q158 147 179 129T245 110Q308 110 348 154T389 264Q389 306 368 328T307 350Q282 350
263 340L244 330H180L170 340L186 430L351 570L353 580H130L120 590L137 690L147 700H557L567 690L550 590L536 570L385 450L383 440Q449 440 490 391T531 264Z" />
<glyph unicode="4" glyph-name="four" horiz-adv-x="570" d="M448 10L438 0H316L306 10L338 190L328 200H22L12 210L31 320L44 340L406 690L426 700H558L568 690L448 10ZM363 330L396 517H386L194 330L192 320H353L363 330Z" />
<glyph unicode="5" glyph-name="five" horiz-adv-x="600" d="M553 275Q553 150 478 70T275 -10Q175 -10 112 40T48 170L50 190L60 200H181L191 190Q190 190 190 180Q190 143 210 127T275 110Q342 110 376 156T411 275Q411 360 324 360Q249 360 208 300L188 290L89
300L79 310L166 690L176 700H587L597 690L580 590L570 580H287L277 570L244 435H254L262 442Q269 449 282 457T318 473T370 480Q454 480 503 424T553 275Z" />
<glyph unicode="6" glyph-name="six" horiz-adv-x="590" d="M371 590Q336 590 309 573T267 528T243 477T231 430H241L252 440Q264 450 296 460T368 470Q447 470 499 415T551 275Q551 157 479 74T285 -10Q175 -10 114 46T53 200Q53 269 67 350Q97 526 168 618T376
710Q468 710 530 665T592 550L591 540L581 530H460L450 540Q450 590 371 590ZM285 110Q340 110 374 157T409 265Q409 350 327 350Q266 350 230 306T193 196Q193 110 285 110Z" />
<glyph unicode="7" glyph-name="seven" horiz-adv-x="530" d="M558 580L187 10L167 0H87L77 10L95 110L396 570L398 580H110L100 590L117 690L127 700H567L577 690L558 580Z" />
<glyph unicode="8" glyph-name="eight" horiz-adv-x="580" d="M298 310Q245 310 208 278T171 191Q171 156 194 133T266 110Q318 110 356 143T395 229Q395 266 370 288T298 310ZM349 590Q306 590 275 565T243 493Q243 461 263 441T322 420Q365 420 395 447T426
523Q426 550 408 570T349 590ZM29 191Q29 322 152 375L154 385Q134 401 118 429T101 493Q101 590 175 650T351 710Q448 710 508 658T568 534Q568 429 472 375L470 365Q499 347 518 312T537 229Q537 123 455 57T264 -10Q151 -10 90 51T29 191Z" />
<glyph unicode="9" glyph-name="nine" horiz-adv-x="590" d="M255 110Q364 110 392 265H382L370 256Q359 248 331 239T271 230Q188 230 131 290T73 435Q73 555 149 632T351 710Q452 710 512 654T572 492Q572 426 561 370Q543 271 521 205T463 88T377 14T255 -10Q161
-10 102 35T43 150L44 160L54 170H175L185 160Q185 110 255 110ZM341 590Q281 590 248 544T215 435Q215 350 297 350Q362 350 396 393T431 504Q431 590 341 590Z" />
<glyph unicode=":" glyph-name="colon" horiz-adv-x="320" d="M198 10L188 0H48L36 10L59 140L69 150H211L221 140L198 10ZM260 360L250 350H110L98 360L121 490L131 500H273L283 490L260 360Z" />
<glyph unicode=";" glyph-name="semicolon" horiz-adv-x="320" d="M260 360L250 350H110L98 360L121 490L131 500H273L283 490L260 360ZM197 0L181 -30L83 -130L63 -140H-7L-4 -120L74 -20L76 -10L66 0H46L36 10L59 140L69 150H211L221 140L197 0Z" />
<glyph unicode="&lt;" glyph-name="less" horiz-adv-x="580" d="M78 298L91 318L469 500H532L542 490L526 400L513 380L241 260L238 240L467 120L473 100L457 10L447 0H416L71 201L65 221L78 298Z" />
<glyph unicode="=" glyph-name="equal" horiz-adv-x="600" d="M531 310L521 300H99L89 310L107 410L117 420H539L549 410L531 310ZM492 90L482 80H60L50 90L68 190L78 200H500L510 190L492 90Z" />
<glyph unicode="&gt;" glyph-name="greater" horiz-adv-x="580" d="M501 202L488 182L110 0H47L37 10L53 100L66 120L338 240L341 260L112 380L106 400L122 490L132 500H163L508 299L514 279L501 202Z" />
<glyph unicode="?" glyph-name="question" horiz-adv-x="640" d="M609 524Q609 454 574 410T461 323Q415 297 399 278T377 230L367 220H245L235 230Q252 329 354 390Q386 409 405 422T445 464T466 524Q466 553 446 571T381 590Q328 590 300 565T261 480L251 470H129L119
480Q138 588 198 649T381 710Q489 710 549 654T609 524ZM348 10L338 0H198L186 10L209 140L219 150H361L371 140L348 10Z" />
<glyph unicode="@" glyph-name="at" horiz-adv-x="940" d="M491 370Q453 370 428 342T394 278T385 203Q385 130 448 130Q485 130 510 157T544 220T554 295Q554 370 491 370ZM581 430L597 460L607 470H698L708 460L655 160Q653 152 653 144Q653 110 685 110Q709
110 726 135T752 199T763 269T767 329Q767 437 707 498T524 560Q377 560 276 446T174 180Q174 72 235 6T415 -60Q510 -60 590 -30H608L618 -40L604 -120Q512 -170 415 -170Q246 -170 149 -71T52 180Q52 310 109 421T275 601T524 670Q692 670 790 576T889 329Q889
285 883 243T862 158T822 82T759 30T670 10Q581 10 551 75H541L528 62Q516 48 486 34T419 20Q349 20 301 70T253 203Q253 251 266 298T305 387T374 454T470 480Q501 480 526 468T562 442L571 430H581Z" />
<glyph unicode="A" glyph-name="A" horiz-adv-x="650" d="M587 10L577 0H493L483 10L456 140L436 150H186L166 140L93 10L83 0H-13L-23 10L-5 110L327 690L337 700H467L477 690L605 110L587 10ZM431 280L383 520H373L241 280L251 270H421L431 280Z" />
<glyph unicode="B" glyph-name="B" horiz-adv-x="670" d="M629 223Q629 126 556 63T375 0H46L37 10L157 690L167 700H471Q554 700 607 655T661 535Q661 478 628 433T533 375L531 365Q578 353 603 314T629 223ZM263 420H422Q465 420 492 448T519 520Q519 580 450
580H288L278 570L253 430L263 420ZM210 120H369Q421 120 454 148T487 230Q487 300 400 300H239L229 290L200 130L210 120Z" />
<glyph unicode="C" glyph-name="C" horiz-adv-x="710" d="M355 -10Q210 -10 130 71T49 280Q49 394 93 490T229 648T441 710Q489 710 535 698T623 662T690 596T715 500L705 490H584L574 500Q574 546 535 568T441 590Q362 590 304 544T218 429T191 280Q191 110 355
110Q490 110 521 210L531 220H654L664 210Q645 107 562 49T355 -10Z" />
<glyph unicode="D" glyph-name="D" horiz-adv-x="690" d="M677 437Q677 311 636 214T508 59T295 0H45L35 10L155 690L165 700H378Q528 700 602 629T677 437ZM208 120H295Q415 120 475 206T535 437Q535 512 498 546T378 580H286L276 570L198 130L208 120Z" />
<glyph unicode="E" glyph-name="E" horiz-adv-x="630" d="M527 10L517 0H45L35 10L155 690L165 700H637L647 690L630 590L620 580H286L276 570L251 430V420H568L578 410L560 310L550 300H237L227 290L198 130L208 120H535L545 110L527 10Z" />
<glyph unicode="F" glyph-name="F" horiz-adv-x="590" d="M610 590L600 580H286L276 570L250 420L260 410H546L556 400L538 300L528 290H235L225 280L177 10L167 0H45L35 10L155 690L165 700H617L627 690L610 590Z" />
<glyph unicode="G" glyph-name="G" horiz-adv-x="740" d="M638 10L628 0H535L525 10V57H515Q495 34 451 12T345 -10Q211 -10 130 74T49 287Q49 398 96 493T234 649T441 710Q574 710 647 647T724 500L714 490H592L582 500Q577 519 571 531T550 559T508 582T441
590Q330 590 261 498T191 287Q191 205 233 158T355 110Q437 110 482 148T539 250L529 260H362L352 270L370 370L380 380H692L702 370L638 10Z" />
<glyph unicode="H" glyph-name="H" horiz-adv-x="730" d="M609 10L599 0H477L467 10L517 290L507 300H237L227 290L177 10L167 0H45L35 10L155 690L165 700H287L297 690L251 430L261 420H531L541 430L587 690L597 700H719L729 690L609 10Z" />
<glyph unicode="I" glyph-name="I" horiz-adv-x="300" d="M178 10L168 0H46L36 10L156 690L166 700H288L298 690L178 10Z" />
<glyph unicode="J" glyph-name="J" horiz-adv-x="550" d="M549 690L466 220Q445 102 383 46T215 -10Q113 -10 60 45T6 173Q6 190 11 210L21 220H143L153 210Q148 190 148 173Q148 110 215 110Q306 110 323 210L407 690L417 700H539L549 690Z" />
<glyph unicode="K" glyph-name="K" horiz-adv-x="640" d="M577 10L567 0H513L493 10L316 289H306L213 210L177 10L167 0H45L35 10L155 690L165 700H287L297 690L248 415H258L581 690L601 700H667L677 690L660 590L424 390L423 380L595 110L577 10Z" />
<glyph unicode="L" glyph-name="L" horiz-adv-x="560" d="M507 10L497 0H45L35 10L155 690L165 700H287L297 690L198 130L208 120H515L525 110L507 10Z" />
<glyph unicode="M" glyph-name="M" horiz-adv-x="910" d="M789 10L779 0H657L647 10L716 400H706L477 10L467 0H357L347 10L256 400H246L177 10L167 0H45L35 10L155 690L165 700H309L319 690L433 200H443L729 690L739 700H899L909 690L789 10Z" />
<glyph unicode="N" glyph-name="N" horiz-adv-x="750" d="M155 690L165 700H293L313 690L516 230H526L607 690L617 700H739L749 690L629 10L619 0H491L471 10L268 470H258L177 10L167 0H45L35 10L155 690Z" />
<glyph unicode="O" glyph-name="O" horiz-adv-x="760" d="M355 110Q467 110 535 203T603 415Q603 496 562 543T440 590Q329 590 260 498T191 287Q191 205 233 158T355 110ZM745 415Q745 333 718 257T641 121T518 26T355 -10Q212 -10 131 73T49 287Q49 397 96 493T235
649T440 710Q582 710 663 627T745 415Z" />
<glyph unicode="P" glyph-name="P" horiz-adv-x="680" d="M706 515Q706 407 630 344T446 280H233L223 270L177 10L167 0H45L35 10L155 690L165 700H478Q583 700 644 651T706 515ZM258 400H446Q499 400 531 429T564 515Q564 580 478 580H286L276 570L248 410L258 400Z" />
<glyph unicode="Q" glyph-name="Q" horiz-adv-x="760" d="M745 415Q745 266 663 150L661 139L685 110L667 10L657 0H600L563 45H552Q466 -10 355 -10Q212 -10 131 73T49 287Q49 397 96 493T235 649T440 710Q582 710 663 627T745 415ZM355 110Q419 110 471 143L473
153L410 230H298L288 240L304 330L314 340H484L504 330L559 263H570Q603 334 603 415T562 543T440 590Q329 590 260 498T191 287Q191 205 233 158T355 110Z" />
<glyph unicode="R" glyph-name="R" horiz-adv-x="700" d="M706 515Q706 426 654 367T518 288L516 278L615 110L597 10L586 0H536L517 10L363 270L345 280H233L223 270L177 10L167 0H45L35 10L155 690L165 700H478Q583 700 644 651T706 515ZM258 400H446Q499 400
531 429T564 515Q564 580 478 580H286L276 570L248 410L258 400Z" />
<glyph unicode="S" glyph-name="S" horiz-adv-x="660" d="M613 218Q613 139 567 86T453 12T304 -10Q172 -10 101 49T30 195L32 220L42 230H164L174 220Q172 220 172 195Q172 153 205 132T315 110Q356 110 388 118T447 151T473 218Q473 255 440 271T310 308Q93
354 93 506Q93 561 119 602T188 666T279 699T381 710Q510 710 574 658T638 525L636 500L626 490H504L494 500Q496 500 496 525Q496 560 468 575T370 590Q235 590 235 506Q235 471 266 453T390 415Q500 392 556 348T613 218Z" />
<glyph unicode="T" glyph-name="T" horiz-adv-x="620" d="M660 590L650 580H447L437 570L338 10L328 0H206L196 10L295 570L285 580H90L80 590L97 690L107 700H667L677 690L660 590Z" />
<glyph unicode="U" glyph-name="U" horiz-adv-x="720" d="M718 690L644 270Q594 -10 335 -10Q214 -10 146 53T77 220Q77 244 82 270L156 690L166 700H288L298 690L224 270Q219 244 219 220Q219 110 335 110Q410 110 449 150T502 270L576 690L586 700H708L718 690Z" />
<glyph unicode="V" glyph-name="V" horiz-adv-x="650" d="M681 590L358 10L348 0H217L207 10L90 590L107 690L117 700H199L209 690L303 200H313L579 690L589 700H688L698 690L681 590Z" />
<glyph unicode="W" glyph-name="W" horiz-adv-x="950" d="M482 700H612L622 690L671 230H681L862 690L872 700H978L988 690L971 590L718 10L708 0H577L567 10L522 490H512L297 10L287 0H157L147 10L100 590L117 690L127 700H222L232 690L251 230H261L472 690L482 700Z" />
<glyph unicode="X" glyph-name="X" horiz-adv-x="670" d="M588 10L578 0H523L503 10L348 246H338L113 10L93 0H6L-4 10L14 110L262 359L264 369L109 590L126 690L136 700H191L211 690L359 466H369L581 690L601 700H688L698 690L681 590L445 355L443 345L606 110L588 10Z" />
<glyph unicode="Y" glyph-name="Y" horiz-adv-x="600" d="M631 590L372 260L328 10L318 0H196L186 10L230 260L89 590L106 690L116 700H174L194 690L307 420H327L534 690L554 700H638L648 690L631 590Z" />
<glyph unicode="Z" glyph-name="Z" horiz-adv-x="620" d="M528 10L518 0H16L6 10L26 120L39 140L424 570L426 580H129L119 590L136 690L146 700H618L628 690L609 580L595 560L210 130L209 120H536L546 110L528 10Z" />
<glyph unicode="[" glyph-name="bracketleft" horiz-adv-x="410" d="M252 -190L242 -200H11L1 -190L156 690L166 700H397L407 690L390 590L380 580H287L277 570L164 -70L174 -80H260L270 -90L252 -190Z" />
<glyph unicode="\" glyph-name="backslash" horiz-adv-x="510" d="M349 10L100 590L117 690L129 700H187L195 690L445 110L427 10L416 0H358L349 10Z" />
<glyph unicode="]" glyph-name="bracketright" horiz-adv-x="410" d="M157 690L167 700H398L408 690L253 -190L243 -200H12L2 -190L19 -90L29 -80H122L132 -70L245 570L235 580H149L139 590L157 690Z" />
<glyph unicode="^" glyph-name="asciicircum" horiz-adv-x="580" d="M508 240L498 230H437L417 240L354 510H334L177 240L157 230H78L68 240L85 340L307 690L317 700H417L427 690L525 340L508 240Z" />
<glyph unicode="_" glyph-name="underscore" horiz-adv-x="580" d="M477 -110L467 -120H-15L-25 -110L-7 -10L3 0H485L495 -10L477 -110Z" />
<glyph unicode="`" glyph-name="grave" horiz-adv-x="500" d="M359 570L349 560H273L253 570L161 670L164 690L174 700H260L280 690L363 590L359 570Z" />
<glyph unicode="a" glyph-name="a" horiz-adv-x="590" d="M488 10L478 0H366L356 10L352 36H342Q296 -10 228 -10Q139 -10 81 52T22 205Q22 325 96 417T294 510Q325 510 350 502T388 484T408 466L414 457H424L441 490L451 500H563L573 490L488 10ZM303 390Q236
390 200 336T164 205Q164 110 254 110Q320 110 356 164T393 294Q393 390 303 390Z" />
<glyph unicode="b" glyph-name="b" horiz-adv-x="590" d="M566 294Q566 220 536 152T443 37T299 -10Q257 -10 226 2T184 28L174 40H164L148 10L138 0H26L16 10L136 690L146 700H268L278 690L238 460H248L260 472Q271 485 301 497T370 510Q455 510 510 449T566
294ZM285 110Q351 110 387 164T424 294Q424 390 334 390Q267 390 231 336T195 205Q195 110 285 110Z" />
<glyph unicode="c" glyph-name="c" horiz-adv-x="540" d="M304 390Q239 390 203 335T166 207Q166 110 255 110Q321 110 348 160L358 170H485L495 160Q437 -10 255 -10Q149 -10 87 51T24 207Q24 330 99 420T304 510Q362 510 410 494T492 437T526 340L516 330H394L384
340Q382 363 361 376T304 390Z" />
<glyph unicode="d" glyph-name="d" horiz-adv-x="590" d="M23 205Q23 260 40 313T88 410T170 482T285 510Q329 510 362 497T406 471L416 458H426L466 690L476 700H598L608 690L488 10L478 0H366L356 10L352 40H342L329 28Q316 15 284 3T214 -10Q132 -10 78 51T23
205ZM304 390Q237 390 201 336T165 205Q165 110 255 110Q321 110 357 164T393 294Q393 390 304 390Z" />
<glyph unicode="e" glyph-name="e" horiz-adv-x="540" d="M510 250L503 210L493 200H179L169 190Q169 189 169 187T168 182Q168 156 188 133T255 110Q304 110 323 140L333 150H461L471 140Q421 -10 255 -10Q139 -10 82 53T25 211Q25 336 95 423T294 510Q400 510
457 451T515 303Q515 283 510 250ZM358 300L370 310Q371 310 371 319Q371 334 367 348T344 376T294 390Q266 390 245 380T212 354T196 328T190 310L198 300H358Z" />
<glyph unicode="f" glyph-name="f" horiz-adv-x="410" d="M458 700L468 690L451 590L441 580H349Q319 580 313 550L306 510L316 500H413L423 490L405 390L395 380H292L282 370L218 10L208 0H86L76 10L140 370L130 380H63L53 390L71 490L81 500H154L164 510L171
550Q198 700 349 700H458Z" />
<glyph unicode="g" glyph-name="g" horiz-adv-x="590" d="M350 40H340L328 28Q317 15 287 3T219 -10Q134 -10 79 53T23 211Q23 285 53 352T146 464T290 510Q332 510 363 498T405 472L415 460H425L441 490L451 500H563L573 490L495 50Q449 -210 220 -210Q129 -210
72 -169T15 -60L25 -50H145L155 -60Q164 -90 220 -90Q328 -90 350 40ZM304 390Q238 390 202 338T165 211Q165 165 187 138T255 110Q322 110 358 164T394 295Q394 390 304 390Z" />
<glyph unicode="h" glyph-name="h" horiz-adv-x="590" d="M488 10L478 0H356L346 10L397 300Q400 315 400 327Q400 390 334 390Q225 390 202 260L158 10L148 0H26L16 10L136 690L146 700H268L278 690L238 460H248Q298 510 375 510Q451 510 497 464T543 347Q543
323 539 300L488 10Z" />
<glyph unicode="i" glyph-name="i" horiz-adv-x="260" d="M261 590L251 580H129L119 590L136 690L146 700H268L278 690L261 590ZM158 10L148 0H26L16 10L101 490L111 500H233L243 490L158 10Z" />
<glyph unicode="j" glyph-name="j" horiz-adv-x="260" d="M243 490L153 -20Q138 -108 93 -144T-36 -180H-104L-114 -170L-97 -70L-87 -60H-36Q-13 -60 -3 -51T11 -20L101 490L111 500H233L243 490ZM261 590L251 580H129L119 590L136 690L146 700H268L278 690L261 590Z" />
<glyph unicode="k" glyph-name="k" horiz-adv-x="540" d="M468 10L458 0H412L392 10L280 173H270L184 100L171 80L158 10L148 0H26L16 10L136 690L146 700H268L278 690L211 307H221L436 490L456 500H533L543 490L525 390L384 270L382 260L486 110L468 10Z" />
<glyph unicode="l" glyph-name="l" horiz-adv-x="260" d="M158 10L148 0H26L16 10L136 690L146 700H268L278 690L158 10Z" />
<glyph unicode="m" glyph-name="m" horiz-adv-x="870" d="M778 10L768 0H646L636 10L687 300Q690 315 690 327Q690 390 624 390Q535 390 516 280L468 10L458 0H336L326 10L377 300Q380 315 380 327Q380 390 314 390Q225 390 206 280L158 10L148 0H26L16 10L101
490L111 500H223L233 490L238 460H248L258 472Q269 485 298 497T365 510Q458 510 493 440H503Q559 510 665 510Q742 510 788 468T834 352Q834 332 829 300L778 10Z" />
<glyph unicode="n" glyph-name="n" horiz-adv-x="580" d="M488 10L478 0H356L346 10L397 300Q400 313 400 327Q400 390 334 390Q225 390 202 260L158 10L148 0H26L16 10L101 490L111 500H223L233 490L238 460H248Q298 510 378 510Q454 510 498 464T543 347Q543
323 539 300L488 10Z" />
<glyph unicode="o" glyph-name="o" horiz-adv-x="560" d="M166 207Q166 159 189 134T256 108Q322 108 358 162T394 291Q394 339 371 364T304 390Q238 390 202 336T166 207ZM24 207Q24 334 99 422T304 510Q410 510 473 449T536 291Q536 164 461 76T256 -12Q150
-12 87 49T24 207Z" />
<glyph unicode="p" glyph-name="p" horiz-adv-x="590" d="M566 295Q566 240 549 187T501 90T419 18T304 -10Q260 -10 227 3T184 29L173 42H163L123 -190L113 -200H-9L-19 -190L101 490L111 500H223L233 490L237 460H247L260 472Q273 485 305 497T375 510Q457 510
511 449T566 295ZM285 110Q352 110 388 164T424 295Q424 390 334 390Q268 390 232 336T196 206Q196 110 285 110Z" />
<glyph unicode="q" glyph-name="q" horiz-adv-x="590" d="M23 211Q23 285 53 352T146 464T290 510Q332 510 363 498T405 472L415 460H425L441 490L451 500H563L573 490L453 -190L443 -200H321L311 -190L351 40H341L330 28Q318 15 288 3T219 -10Q134 -10 79 53T23
211ZM304 390Q238 390 202 338T165 211Q165 165 187 138T255 110Q322 110 358 164T394 295Q394 390 304 390Z" />
<glyph unicode="r" glyph-name="r" horiz-adv-x="410" d="M415 390L405 380H334Q274 380 244 351T201 250L158 10L147 0H25L16 10L101 490L111 500H223L233 490L238 460H248L256 470Q265 480 291 490T353 500H423L433 490L415 390Z" />
<glyph unicode="s" glyph-name="s" horiz-adv-x="500" d="M455 158Q455 113 435 80T382 27T309 -1T225 -10Q127 -10 69 33T11 140Q11 152 13 160L23 170H144L154 160Q153 156 153 149Q153 127 171 119T225 110Q313 110 313 158Q313 173 301 181T269 192T221 200Q55
228 55 344Q55 425 120 467T274 510Q365 510 423 474T482 377Q482 368 480 360L470 350H348L338 360Q339 360 339 367Q339 390 274 390Q197 390 197 345Q197 329 213 320T254 308T308 300Q332 296 354 288T401 265T440 222T455 158Z" />
<glyph unicode="t" glyph-name="t" horiz-adv-x="420" d="M272 370L234 157Q232 147 232 141Q232 120 258 120H346L356 110L338 10L328 0H247Q174 0 131 28T88 117Q88 134 92 155L130 370L120 380H53L43 390L61 490L71 500H144L154 510L170 600L180 610H302L312
600L296 510L306 500H413L423 490L405 390L395 380H282L272 370Z" />
<glyph unicode="u" glyph-name="u" horiz-adv-x="570" d="M91 490L101 500H223L233 490L182 200Q179 185 179 173Q179 110 245 110Q295 110 325 142T365 230L411 490L421 500H541L551 490L466 10L455 0H345L336 10L332 40H322L310 28Q299 15 270 3T204 -10Q121
-10 78 32T35 148Q35 175 40 200L91 490Z" />
<glyph unicode="v" glyph-name="v" horiz-adv-x="530" d="M524 390L287 10L277 0H167L157 10L54 390L72 490L82 500H164L174 490L239 180H249L422 490L432 500H532L542 490L524 390Z" />
<glyph unicode="w" glyph-name="w" horiz-adv-x="790" d="M774 390L587 10L577 0H447L437 10L410 310H400L267 10L257 0H127L117 10L64 390L82 490L92 500H177L187 490L218 210H228L357 490L367 500H493L503 490L534 210H544L673 490L683 500H782L792 490L774 390Z" />
<glyph unicode="x" glyph-name="x" horiz-adv-x="510" d="M252 157H242L92 10L72 0H-3L-13 10L5 110L166 256L167 266L64 390L82 490L92 500H137L157 490L258 354H268L407 490L427 500H502L512 490L494 390L344 254V244L455 110L437 10L427 0H382L362 10L252 157Z" />
<glyph unicode="y" glyph-name="y" horiz-adv-x="530" d="M525 390L300 -10Q274 -56 258 -79T215 -126T152 -160T65 -170H-4L-14 -160L4 -60L14 -50H65Q101 -50 115 -42T143 -10L145 0L53 390L71 490L81 500H165L175 490L236 150H246L425 490L435 500H533L543
490L525 390Z" />
<glyph unicode="z" glyph-name="z" horiz-adv-x="520" d="M438 10L428 0H6L-4 10L16 120L29 140L288 370L290 380H83L73 390L91 490L101 500H503L513 490L494 380L480 360L221 130L220 120H446L456 110L438 10Z" />
<glyph unicode="{" glyph-name="braceleft" horiz-adv-x="470" d="M251 261L248 241Q293 225 293 165Q293 145 288 120L260 -40Q258 -50 258 -55Q258 -69 266 -74T293 -80H321L331 -90L313 -190L303 -200H251Q192 -200 153 -171T114 -78Q114 -61 118 -40L146 120Q149
135 149 146Q149 200 82 200L72 210L86 290L96 300Q177 300 192 380L221 550Q247 700 390 700H458L468 690L451 590L441 580H409Q386 580 376 571T362 540L334 380Q324 326 305 297T251 261Z" />
<glyph unicode="|" glyph-name="bar" horiz-adv-x="380" d="M183 -190L173 -200H51L41 -190L196 690L206 700H328L338 690L183 -190Z" />
<glyph unicode="}" glyph-name="braceright" horiz-adv-x="470" d="M219 243L222 263Q177 279 177 340Q177 360 182 385L210 540Q212 550 212 555Q212 569 204 574T177 580H149L139 590L157 690L167 700H219Q278 700 317 671T356 578Q356 561 352 540L324 380Q321
365 321 354Q321 300 388 300L398 290L384 210L374 200Q293 200 278 120L249 -50Q223 -200 80 -200H12L2 -190L19 -90L29 -80H61Q84 -80 94 -71T108 -40L136 125Q154 229 219 243Z" />
<glyph unicode="~" glyph-name="asciitilde" horiz-adv-x="660" d="M57 170L47 180Q79 360 239 360Q276 360 310 346T364 315T405 284T443 270Q483 270 492 320L502 330H602L612 320Q598 240 549 190T420 140Q383 140 349 154T295 185T254 216T216 230Q176 230
167 180L157 170H57Z" />
</font>
</defs>
</svg>
