<?xml version="1.0" standalone="no"?> <!DOCTYPE svg PUBLIC "-//W3C//DTD SVG 1.0//EN" "http://www.w3.org/TR/2001/REC-SVG-20010904/DTD/svg10.dtd" > <svg xmlns="http://www.w3.org/2000/svg" width="100%" height="100%">
<defs >
<font id="repbd___" horiz-adv-x="593" ><font-face
    font-family="Replica-Bold"
    units-per-em="1000"
    panose-1="2 0 5 3 3 0 0 2 0 4"
    ascent="900"
    descent="-210"
    alphabetic="0" />
<missing-glyph horiz-adv-x="660" d="M580 10L570 0H90L80 10V690L90 700H570L580 690V10ZM110 660V40L120 30H540L550 40V660L540 670H120L110 660Z" />
<glyph unicode=" " glyph-name="space" horiz-adv-x="260" />
<glyph unicode="!" glyph-name="exclam" horiz-adv-x="400" d="M270 470L250 240L240 230H160L150 240L130 470V690L140 700H260L270 690V470ZM280 10L270 0H130L120 10V140L130 150H270L280 140V10Z" />
<glyph unicode="&quot;" glyph-name="quotedbl" horiz-adv-x="540" d="M460 400L450 390H330L320 400V690L330 700H450L460 690V400ZM220 400L210 390H90L80 400V690L90 700H210L220 690V400Z" />
<glyph unicode="#" glyph-name="numbersign" horiz-adv-x="650" d="M570 210L560 200H470L460 190L410 10L400 0H330L320 10V110L340 190L330 200H240L230 190L180 10L170 0H100L90 10V110L110 190L100 200H40L30 210V290L40 300H130L140 310L160 390L150 400H90L80
410V490L90 500H180L190 510L240 690L250 700H320L330 690V590L310 510L320 500H410L420 510L470 690L480 700H550L560 690V590L540 510L550 500H610L620 490V410L610 400H520L510 390L490 310L500 300H560L570 290V210ZM280 390L260 310L270 300H360L370 310L390
390L380 400H290L280 390Z" />
<glyph unicode="$" glyph-name="dollar" horiz-adv-x="660" d="M620 200Q620 120 562 62T390 -10L380 -20V-80L370 -90H290L280 -80V-20L270 -10Q160 5 100 66T40 220L50 230H170L180 220Q180 125 270 110L280 120V300L270 310Q162 335 106 382T50 520Q50 604
114 653T270 710L280 720V780L290 790H370L380 780V720L390 710Q483 694 536 641T590 500L580 490H460L450 500Q450 536 436 554T390 580L380 570V430L390 420Q620 374 620 200ZM480 200Q480 242 457 261T390 290L380 280V120L390 110Q430 118 455 141T480 200ZM190
520Q190 460 270 440L280 450V580L270 590Q242 590 216 572T190 520Z" />
<glyph unicode="%" glyph-name="percent" horiz-adv-x="940" d="M307 330T220 330T87 382T40 520T86 658T220 710T353 658T400 520T354 382ZM170 600T170 520T220 440T270 520T220 600ZM700 590L320 10L310 0H250L240 10V110L620 690L630 700H690L700 690V590ZM807
-10T720 -10T587 42T540 180T586 318T720 370T853 318T900 180T854 42ZM670 260T670 180T720 100T770 180T720 260Z" />
<glyph unicode="&amp;" glyph-name="ampersand" horiz-adv-x="760" d="M690 10L680 0H630L610 10L560 60H550Q462 -10 330 -10Q209 -10 145 50T80 200Q80 281 116 326T210 400V410Q150 470 150 540Q150 613 200 661T350 710Q439 710 484 661T530 550Q530 447 430
380V370L540 260H550Q564 288 567 313T570 390L580 400H690L700 390Q700 332 699 303T686 234T650 160V150L690 110V10ZM400 540Q400 590 340 590T280 540Q280 526 287 512T302 489T330 460H340Q360 473 370 481T390 505T400 540ZM460 150V160L310 310H300Q256
288 238 263T220 200Q220 161 249 136T330 110Q420 110 460 150Z" />
<glyph unicode="&apos;" glyph-name="quotesingle" horiz-adv-x="300" d="M220 400L210 390H90L80 400V690L90 700H210L220 690V400Z" />
<glyph unicode="(" glyph-name="parenleft" horiz-adv-x="450" d="M80 250Q80 295 80 320T85 377T94 423T113 467T140 509T182 558T236 616T310 690L330 700H360L370 690V590Q327 547 310 529T270 482T242 439T229 392T221 332T220 250T220 169T228 108T241 62T269
18T309 -29T370 -90V-190L360 -200H330L310 -190Q243 -123 216 -96T154 -26T112 34T92 91T81 160T80 250Z" />
<glyph unicode=")" glyph-name="parenright" horiz-adv-x="450" d="M370 250Q370 190 370 160T358 91T339 35T296 -25T235 -95T140 -190L120 -200H90L80 -190V-90Q123 -47 140 -29T180 18T208 61T221 108T229 168T230 250T230 331T222 392T209 438T181 482T141
529T80 590V690L90 700H120L140 690Q192 638 214 616T268 559T310 510T336 467T356 424T364 377T370 320T370 250Z" />
<glyph unicode="*" glyph-name="asterisk" horiz-adv-x="590" d="M300 270H290L280 280V440H270L160 330H150L140 340V350L250 460V470H90L80 480V490L90 500H250V510L140 620V630L150 640H160L270 530H280V690L290 700H300L310 690V530H320L430 640H440L450 630V620L340
510V500H500L510 490V480L500 470H340V460L450 350V340L440 330H430L320 440H310V280L300 270Z" />
<glyph unicode="+" glyph-name="plus" horiz-adv-x="620" d="M560 200L550 190H380L370 180V10L360 0H260L250 10V180L240 190H70L60 200V300L70 310H240L250 320V490L260 500H360L370 490V320L380 310H550L560 300V200Z" />
<glyph unicode="," glyph-name="comma" horiz-adv-x="320" d="M240 0L230 -30L150 -130L130 -140H70V-120L130 -20V-10L120 0H90L80 10V140L90 150H230L240 140V0Z" />
<glyph unicode="-" glyph-name="hyphen" horiz-adv-x="430" d="M370 210L360 200H70L60 210V310L70 320H360L370 310V210Z" />
<glyph unicode="." glyph-name="period" horiz-adv-x="320" d="M240 10L230 0H90L80 10V140L90 150H230L240 140V10Z" />
<glyph unicode="/" glyph-name="slash" horiz-adv-x="510" d="M470 590L130 10L120 0H50L40 10V110L380 690L390 700H460L470 690V590Z" />
<glyph unicode="0" glyph-name="zero" horiz-adv-x="600" d="M40 164T40 350T110 623T300 710T490 623T560 350T490 77T300 -10T110 77ZM180 481T180 350T209 165T300 110T391 164T420 350T391 535T300 590T209 536Z" />
<glyph unicode="1" glyph-name="one" horiz-adv-x="410" d="M320 0H200L190 10V520H180L100 440H50L40 450V550L180 690L200 700H320L330 690V10L320 0Z" />
<glyph unicode="2" glyph-name="two" horiz-adv-x="570" d="M530 10L520 0H50L40 10V120L50 140L230 290Q316 362 343 402T370 490Q370 536 347 563T280 590Q224 590 202 565T180 490L170 480H50L40 490Q40 534 52 571T92 641T167 691T280 710Q388 710 449 649T510
500Q510 421 473 366T340 230L220 130V120H520L530 110V10Z" />
<glyph unicode="3" glyph-name="three" horiz-adv-x="570" d="M530 230Q530 128 461 59T270 -10Q157 -10 94 49T30 190L40 200H160L170 190Q170 157 195 134T270 110Q328 110 359 143T390 230Q390 289 363 319T290 350Q272 350 257 345T236 335L230 330H180L170
340V430L310 570V580H70L60 590V690L70 700H480L490 690V590L480 570L350 450V440Q421 440 475 382T530 230Z" />
<glyph unicode="4" glyph-name="four" horiz-adv-x="570" d="M490 10L480 0H360L350 10V190L340 200H30L20 210V320L30 340L330 690L350 700H480L490 690V10ZM350 330V530H340L170 330V320H340L350 330Z" />
<glyph unicode="5" glyph-name="five" horiz-adv-x="600" d="M550 250Q550 127 488 59T300 -10Q190 -10 129 43T60 190L70 200H190L200 190Q207 146 230 128T300 110Q355 110 382 139T410 240Q410 295 385 327T310 360Q236 360 200 300L180 290L80 300L70 310L90
690L100 700H510L520 690V590L510 580H230L220 570L210 430H220L230 442Q240 455 270 467T340 480Q436 480 493 415T550 250Z" />
<glyph unicode="6" glyph-name="six" horiz-adv-x="590" d="M310 590Q275 590 251 573T217 528T204 477T200 430H210L220 440Q230 450 260 460T330 470Q422 470 486 406T550 240Q550 128 483 59T310 -10Q171 -10 111 77T50 350Q50 521 114 615T310 710Q412 710
472 664T540 540L530 530H410L400 540Q392 565 372 577T310 590ZM410 230Q410 285 385 317T310 350Q200 350 200 230T310 110Q355 110 382 143T410 230Z" />
<glyph unicode="7" glyph-name="seven" horiz-adv-x="530" d="M500 580L220 10L210 0H130L120 10V110L350 570V580H50L40 590V690L50 700H490L500 690V580Z" />
<glyph unicode="8" glyph-name="eight" horiz-adv-x="580" d="M180 210Q180 168 207 139T290 110T373 139T400 210Q400 256 371 283T290 310T209 283T180 210ZM200 510Q200 471 223 446T290 420T356 445T380 510Q380 539 359 564T290 590T222 565T200 510ZM40
210Q40 271 67 311T130 370V380Q60 427 60 520Q60 599 121 654T290 710T459 655T520 520Q520 427 450 380V370Q486 352 513 312T540 210Q540 120 475 55T290 -10T105 55T40 210Z" />
<glyph unicode="9" glyph-name="nine" horiz-adv-x="590" d="M280 110Q315 110 339 127T373 172T386 223T390 270H380L368 260Q356 250 326 240T260 230Q169 230 105 298T40 470Q40 581 108 645T290 710Q415 710 477 621T540 370Q540 177 480 84T280 -10Q179 -10
124 36T60 160L70 170H190L200 160Q217 110 280 110ZM180 529T180 470T207 381T280 350Q390 350 390 470Q390 533 360 561T280 590Q234 590 207 560Z" />
<glyph unicode=":" glyph-name="colon" horiz-adv-x="320" d="M240 360L230 350H90L80 360V490L90 500H230L240 490V360ZM240 10L230 0H90L80 10V140L90 150H230L240 140V10Z" />
<glyph unicode=";" glyph-name="semicolon" horiz-adv-x="320" d="M240 360L230 350H90L80 360V490L90 500H230L240 490V360ZM240 0L230 -30L150 -130L130 -140H70V-120L130 -20V-10L120 0H90L80 10V140L90 150H230L240 140V0Z" />
<glyph unicode="&lt;" glyph-name="less" horiz-adv-x="580" d="M70 290L80 310L440 500H490L500 490V400L490 380L240 260V240L490 120L500 100V10L490 0H440L80 190L70 210V290Z" />
<glyph unicode="=" glyph-name="equal" horiz-adv-x="600" d="M520 310L510 300H90L80 310V410L90 420H510L520 410V310ZM520 90L510 80H90L80 90V190L90 200H510L520 190V90Z" />
<glyph unicode="&gt;" glyph-name="greater" horiz-adv-x="580" d="M510 210L500 190L140 0H90L80 10V100L90 120L340 240V260L90 380L80 400V490L90 500H140L500 310L510 290V210Z" />
<glyph unicode="?" glyph-name="question" horiz-adv-x="640" d="M560 510Q560 448 531 407T450 330Q406 301 393 281T380 230L370 220H250L240 230Q240 330 330 390Q378 422 399 448T420 510Q420 543 395 566T320 590Q267 590 244 565T220 480L210 470H90L80
480Q80 584 139 647T320 710Q441 710 500 655T560 510ZM390 10L380 0H240L230 10V140L240 150H380L390 140V10Z" />
<glyph unicode="@" glyph-name="at" horiz-adv-x="940" d="M550 370T470 370T390 250T470 130T550 250ZM550 430L560 460L570 470H660L670 460V160Q670 110 710 110Q740 110 750 138T760 250Q760 391 687 475T470 560Q334 560 257 469T180 250Q180 116 256 28T470
-60Q565 -60 640 -30H660L670 -40V-120Q587 -170 470 -170Q285 -170 173 -52T60 250Q60 437 174 553T470 670Q658 670 769 557T880 250Q880 10 700 10Q620 10 580 70H570L558 58Q546 45 516 33T450 20Q371 20 316 81T260 250Q260 362 313 421T440 480Q471 480 496
468T530 442L540 430H550Z" />
<glyph unicode="A" glyph-name="A" horiz-adv-x="650" d="M630 10L620 0H530L520 10L470 140L450 150H200L180 140L130 10L120 0H30L20 10V110L250 690L260 700H390L400 690L630 110V10ZM420 280L330 520H320L230 280L240 270H410L420 280Z" />
<glyph unicode="B" glyph-name="B" horiz-adv-x="670" d="M630 190Q630 92 572 46T430 0H90L80 10V690L90 700H410Q494 700 552 656T610 520Q610 465 585 425T510 370V360Q630 330 630 190ZM470 500Q470 540 452 560T390 580H230L220 570V430L230 420H390Q432
420 451 443T470 500ZM490 120T490 210T390 300H230L220 290V130L230 120H390Q490 120 490 210Z" />
<glyph unicode="C" glyph-name="C" horiz-adv-x="710" d="M380 110Q501 110 530 210L540 220H660L670 210Q655 106 578 48T380 -10Q219 -10 130 89T40 350T129 611T380 710Q500 710 577 654T670 500L660 490H540L530 500Q500 590 380 590Q279 590 230 525T180
350T229 175T380 110Z" />
<glyph unicode="D" glyph-name="D" horiz-adv-x="690" d="M650 522T650 350T571 89T310 0H90L80 10V690L90 700H310Q491 700 570 611ZM510 228T510 350T467 526T320 580H230L220 570V130L230 120H320Q424 120 467 174Z" />
<glyph unicode="E" glyph-name="E" horiz-adv-x="630" d="M570 10L560 0H90L80 10V690L90 700H560L570 690V590L560 580H230L220 570V430L230 420H540L550 410V310L540 300H230L220 290V130L230 120H560L570 110V10Z" />
<glyph unicode="F" glyph-name="F" horiz-adv-x="590" d="M550 590L540 580H230L220 570V420L230 410H520L530 400V300L520 290H230L220 280V10L210 0H90L80 10V690L90 700H540L550 690V590Z" />
<glyph unicode="G" glyph-name="G" horiz-adv-x="740" d="M680 10L670 0H580L570 10L560 60H550Q480 -10 370 -10Q221 -10 131 90T40 350Q40 510 132 610T380 710Q517 710 589 649T680 500L670 490H550L540 500Q527 526 514 542T466 574T380 590Q285 590 233 524T180
350T232 176T380 110Q459 110 499 148T540 250L530 260H360L350 270V370L360 380H670L680 370V10Z" />
<glyph unicode="H" glyph-name="H" horiz-adv-x="730" d="M650 10L640 0H520L510 10V290L500 300H230L220 290V10L210 0H90L80 10V690L90 700H210L220 690V430L230 420H500L510 430V690L520 700H640L650 690V10Z" />
<glyph unicode="I" glyph-name="I" horiz-adv-x="300" d="M220 10L210 0H90L80 10V690L90 700H210L220 690V10Z" />
<glyph unicode="J" glyph-name="J" horiz-adv-x="550" d="M470 690V220Q470 104 410 47T240 -10Q129 -10 75 52T20 200V210L30 220H150L160 210V200Q160 110 240 110Q282 110 306 132T330 210V690L340 700H460L470 690Z" />
<glyph unicode="K" glyph-name="K" horiz-adv-x="640" d="M620 10L610 0H540L520 10L300 280H290L220 210V10L210 0H90L80 10V690L90 700H210L220 690V400H230L520 690L540 700H590L600 690V590L400 390V380L620 110V10Z" />
<glyph unicode="L" glyph-name="L" horiz-adv-x="560" d="M550 10L540 0H90L80 10V690L90 700H210L220 690V130L230 120H540L550 110V10Z" />
<glyph unicode="M" glyph-name="M" horiz-adv-x="910" d="M830 10L820 0H700L690 10V400H680L520 10L510 0H400L390 10L230 400H220V10L210 0H90L80 10V690L90 700H240L250 690L450 200H460L660 690L670 700H820L830 690V10Z" />
<glyph unicode="N" glyph-name="N" horiz-adv-x="750" d="M80 690L90 700H230L250 690L520 230H530V690L540 700H660L670 690V10L660 0H520L500 10L230 470H220V10L210 0H90L80 10V690Z" />
<glyph unicode="O" glyph-name="O" horiz-adv-x="760" d="M580 242T580 350T528 524T380 590T233 524T180 350T232 176T380 110T527 176ZM720 510T720 350T628 90T380 -10T133 90T40 350T132 610T380 710T627 610Z" />
<glyph unicode="P" glyph-name="P" horiz-adv-x="680" d="M660 592T660 490T595 334T420 280H230L220 270V10L210 0H90L80 10V690L90 700H420Q529 700 594 646ZM520 440T520 490T495 560T420 580H230L220 570V410L230 400H420Q469 400 494 420Z" />
<glyph unicode="Q" glyph-name="Q" horiz-adv-x="760" d="M40 188T40 350T129 611T380 710T630 611T720 350Q720 240 680 160V140L710 110V10L700 0H630L590 40H580Q497 -10 380 -10Q219 -10 130 89ZM180 460T180 350T229 175T380 110Q440 110 480 130V150L400
230H300L290 240V330L300 340H470L490 330L560 260H570Q580 290 580 350Q580 460 531 525T380 590T230 525Z" />
<glyph unicode="R" glyph-name="R" horiz-adv-x="700" d="M660 490Q660 411 617 359T510 290V280L640 110V10L630 0H570L550 10L350 270L330 280H230L220 270V10L210 0H90L80 10V690L90 700H420Q529 700 594 646T660 490ZM520 440T520 490T495 560T420 580H230L220
570V410L230 400H420Q469 400 494 420Z" />
<glyph unicode="S" glyph-name="S" horiz-adv-x="660" d="M620 200Q620 109 549 50T330 -10Q186 -10 113 53T40 220L50 230H170L180 220Q180 165 216 138T340 110Q480 110 480 200Q480 252 444 273T300 310Q244 318 202 332T124 369T69 431T50 520Q50 602 118
656T320 710Q456 710 523 653T590 500L580 490H460L450 500Q450 547 420 568T310 590Q190 590 190 520Q190 475 227 455T370 420Q620 384 620 200Z" />
<glyph unicode="T" glyph-name="T" horiz-adv-x="620" d="M600 590L590 580H390L380 570V10L370 0H250L240 10V570L230 580H30L20 590V690L30 700H590L600 690V590Z" />
<glyph unicode="U" glyph-name="U" horiz-adv-x="720" d="M640 690V270Q640 135 568 63T360 -10T153 62T80 270V690L90 700H210L220 690V270Q220 110 360 110T500 270V690L510 700H630L640 690Z" />
<glyph unicode="V" glyph-name="V" horiz-adv-x="650" d="M620 590L400 10L390 0H260L250 10L30 590V690L40 700H130L140 690L320 200H330L510 690L520 700H610L620 690V590Z" />
<glyph unicode="W" glyph-name="W" horiz-adv-x="950" d="M410 700H540L550 690L680 230H690L790 690L800 700H900L910 690V590L760 10L750 0H620L610 10L480 490H470L340 10L330 0H200L190 10L40 590V690L50 700H150L160 690L260 230H270L400 690L410 700Z" />
<glyph unicode="X" glyph-name="X" horiz-adv-x="670" d="M630 10L620 0H550L530 10L340 260H330L140 10L120 0H50L40 10V110L240 360V370L50 590V690L60 700H130L150 690L330 470H340L520 690L540 700H610L620 690V590L430 370V360L630 110V10Z" />
<glyph unicode="Y" glyph-name="Y" horiz-adv-x="600" d="M570 590L370 260V10L360 0H240L230 10V260L30 590V690L40 700H110L130 690L290 420H310L470 690L490 700H560L570 690V590Z" />
<glyph unicode="Z" glyph-name="Z" horiz-adv-x="620" d="M570 10L560 0H60L50 10V120L60 140L380 570V580H70L60 590V690L70 700H540L550 690V580L540 560L220 130V120H560L570 110V10Z" />
<glyph unicode="[" glyph-name="bracketleft" horiz-adv-x="410" d="M330 -190L320 -200H90L80 -190V690L90 700H320L330 690V590L320 580H230L220 570V-70L230 -80H320L330 -90V-190Z" />
<glyph unicode="\" glyph-name="backslash" horiz-adv-x="510" d="M380 10L40 590V690L50 700H120L130 690L470 110V10L460 0H390L380 10Z" />
<glyph unicode="]" glyph-name="bracketright" horiz-adv-x="410" d="M90 -200L80 -190V-90L90 -80H180L190 -70V570L180 580H90L80 590V690L90 700H320L330 690V-190L320 -200H90Z" />
<glyph unicode="^" glyph-name="asciicircum" horiz-adv-x="580" d="M510 240L500 230H430L410 240L300 510H280L170 240L150 230H80L70 240V340L230 690L240 700H340L350 690L510 340V240Z" />
<glyph unicode="_" glyph-name="underscore" horiz-adv-x="580" d="M540 -110L530 -120H50L40 -110V-10L50 0H530L540 -10V-110Z" />
<glyph unicode="`" glyph-name="grave" horiz-adv-x="500" d="M310 570L300 560H210L190 570L80 670V690L90 700H190L210 690L310 590V570Z" />
<glyph unicode="a" glyph-name="a" horiz-adv-x="520" d="M470 10L460 0H350L340 10L330 30H320L308 20Q296 10 269 0T210 -10Q127 -10 79 32T30 150Q30 193 45 225T84 274T138 303T196 317T250 320Q275 320 298 315L320 310L330 320V330Q330 368 318 379T260
390Q240 390 230 389T207 381T190 360L180 350H60L50 360Q50 416 101 463T260 510Q376 510 423 454T470 280V10ZM330 200L320 210L302 215Q285 220 260 220Q170 220 170 160Q170 110 240 110Q278 110 304 130T330 180V200Z" />
<glyph unicode="b" glyph-name="b" horiz-adv-x="590" d="M560 367T560 250T497 62T340 -10Q300 -10 268 2T222 28L210 40H200L190 10L180 0H70L60 10V690L70 700H190L200 690V460H210L222 472Q235 485 267 497T340 510Q433 510 496 439ZM420 110T420 250T310
390T200 250T310 110Z" />
<glyph unicode="c" glyph-name="c" horiz-adv-x="540" d="M170 317T170 250T198 147T280 110Q353 110 370 160L380 170H500L510 160Q496 75 433 33T280 -10Q167 -10 99 60T30 250T98 439T280 510Q369 510 432 468T510 340L500 330H380L370 340Q353 390 280 390Q227
390 199 354Z" />
<glyph unicode="d" glyph-name="d" horiz-adv-x="590" d="M30 133T30 250T93 438T250 510Q290 510 322 498T368 472L380 460H390V690L400 700H520L530 690V10L520 0H410L400 10L390 40H380L368 28Q355 15 323 3T250 -10Q157 -10 94 61ZM170 390T170 250T280 110T390
250T280 390Z" />
<glyph unicode="e" glyph-name="e" horiz-adv-x="540" d="M510 250V210L500 200H190L180 190Q180 166 204 138T280 110Q335 110 350 140L360 150H480L490 140Q486 115 474 91T438 43T374 5T280 -10Q159 -10 95 64T30 250Q30 361 92 435T270 510T447 436T510 250ZM350
300L360 310Q360 316 357 327T346 353T318 379T270 390T223 380T195 354T183 327T180 310L190 300H350Z" />
<glyph unicode="f" glyph-name="f" horiz-adv-x="410" d="M380 700L390 690V590L380 580H290Q260 580 260 550V510L270 500H370L380 490V390L370 380H270L260 370V10L250 0H130L120 10V370L110 380H40L30 390V490L40 500H110L120 510V550Q120 627 168 663T290 700H380Z" />
<glyph unicode="g" glyph-name="g" horiz-adv-x="590" d="M530 490V50Q530 -79 461 -144T280 -210Q191 -210 135 -169T70 -60L80 -50H200L210 -60Q225 -90 280 -90Q390 -90 390 40H380L368 28Q355 15 323 3T250 -10Q157 -10 94 61T30 250T93 438T250 510Q290 510
322 498T368 472L380 460H390L400 490L410 500H520L530 490ZM170 390T170 250T280 110T390 250T280 390Z" />
<glyph unicode="h" glyph-name="h" horiz-adv-x="590" d="M530 10L520 0H400L390 10V300Q390 390 310 390Q200 390 200 260V10L190 0H70L60 10V690L70 700H190L200 690V460H210Q260 510 340 510Q429 510 479 456T530 310V10Z" />
<glyph unicode="i" glyph-name="i" horiz-adv-x="260" d="M200 590L190 580H70L60 590V690L70 700H190L200 690V590ZM200 10L190 0H70L60 10V490L70 500H190L200 490V10Z" />
<glyph unicode="j" glyph-name="j" horiz-adv-x="260" d="M200 490V-20Q200 -107 158 -143T30 -180H-30L-40 -170V-70L-30 -60H20Q42 -60 51 -51T60 -20V490L70 500H190L200 490ZM200 590L190 580H70L60 590V690L70 700H190L200 690V590Z" />
<glyph unicode="k" glyph-name="k" horiz-adv-x="540" d="M510 10L500 0H440L420 10L280 160H270L210 100L200 80V10L190 0H70L60 10V690L70 700H190L200 690V290H210L410 490L430 500H490L500 490V390L380 270V260L510 110V10Z" />
<glyph unicode="l" glyph-name="l" horiz-adv-x="260" d="M200 10L190 0H70L60 10V690L70 700H190L200 690V10Z" />
<glyph unicode="m" glyph-name="m" horiz-adv-x="870" d="M820 10L810 0H690L680 10V300Q680 390 600 390Q510 390 510 280V10L500 0H380L370 10V300Q370 390 290 390Q200 390 200 280V10L190 0H70L60 10V490L70 500H180L190 490L200 460H210L220 472Q230 485
260 497T330 510Q423 510 470 440H480L488 451Q497 462 513 475T560 499T630 510Q721 510 770 459T820 310V10Z" />
<glyph unicode="n" glyph-name="n" horiz-adv-x="580" d="M530 10L520 0H400L390 10V300Q390 390 310 390Q200 390 200 260V10L190 0H70L60 10V490L70 500H180L190 490L200 460H210Q260 510 340 510Q429 510 479 456T530 310V10Z" />
<glyph unicode="o" glyph-name="o" horiz-adv-x="560" d="M530 369T530 250T462 61T280 -10T99 60T30 250T98 439T280 510T461 440ZM390 183T390 250T362 353T280 390T199 354T170 250T198 147T280 110T361 146Z" />
<glyph unicode="p" glyph-name="p" horiz-adv-x="590" d="M560 367T560 250T497 62T340 -10Q300 -10 268 2T222 28L210 40H200V-190L190 -200H70L60 -190V490L70 500H180L190 490L200 460H210L222 472Q235 485 267 497T340 510Q433 510 496 439ZM420 110T420 250T310
390T200 250T310 110Z" />
<glyph unicode="q" glyph-name="q" horiz-adv-x="590" d="M30 133T30 250T93 438T250 510Q290 510 322 498T368 472L380 460H390L400 490L410 500H520L530 490V-190L520 -200H400L390 -190V40H380L368 28Q355 15 323 3T250 -10Q157 -10 94 61ZM170 390T170 250T280
110T390 250T280 390Z" />
<glyph unicode="r" glyph-name="r" horiz-adv-x="410" d="M390 390L380 380H310Q251 380 226 349T200 250V10L190 0H70L60 10V490L70 500H180L190 490L200 460H210L218 470Q225 480 252 490T320 500H380L390 490V390Z" />
<glyph unicode="s" glyph-name="s" horiz-adv-x="500" d="M470 150Q470 83 416 37T250 -10Q147 -10 89 37T30 160L40 170H160L170 160Q170 132 190 121T250 110Q330 110 330 150Q330 169 318 178T283 191T230 200Q40 232 40 360Q40 425 92 467T250 510Q344 510
402 471T460 360L450 350H330L320 360Q320 390 250 390Q212 390 196 381T180 350Q180 338 185 331T206 318T231 311T265 305T300 300Q325 296 341 292T385 277T428 252T457 211T470 150Z" />
<glyph unicode="t" glyph-name="t" horiz-adv-x="420" d="M250 370V150Q250 120 280 120H370L380 110V10L370 0H280Q206 0 158 36T110 150V370L100 380H30L20 390V490L30 500H100L110 510V600L120 610H240L250 600V510L260 500H370L380 490V390L370 380H260L250 370Z" />
<glyph unicode="u" glyph-name="u" horiz-adv-x="570" d="M50 490L60 500H180L190 490V200Q190 110 270 110Q320 110 345 142T370 230V490L380 500H500L510 490V10L500 0H390L380 10L370 40H360L350 28Q340 15 310 3T240 -10Q151 -10 101 44T50 190V490Z" />
<glyph unicode="v" glyph-name="v" horiz-adv-x="530" d="M500 390L330 10L320 0H210L200 10L30 390V490L40 500H130L140 490L260 180H270L390 490L400 500H490L500 490V390Z" />
<glyph unicode="w" glyph-name="w" horiz-adv-x="790" d="M750 390L630 10L620 0H490L480 10L400 310H390L310 10L300 0H170L160 10L40 390V490L50 500H140L150 490L230 210H240L320 490L330 500H460L470 490L550 210H560L640 490L650 500H740L750 490V390Z" />
<glyph unicode="x" glyph-name="x" horiz-adv-x="510" d="M480 10L470 0H410L390 10L260 170H250L120 10L100 0H40L30 10V110L150 250V260L40 390V490L50 500H110L130 490L250 340H260L380 490L400 500H460L470 490V390L360 260V250L480 110V10Z" />
<glyph unicode="y" glyph-name="y" horiz-adv-x="530" d="M500 390L340 -10Q323 -52 308 -78T268 -127T207 -160T120 -170H70L60 -160V-60L70 -50H120Q156 -50 169 -42T190 -10V0L30 390V490L40 500H130L140 490L260 150H270L390 490L400 500H490L500 490V390Z" />
<glyph unicode="z" glyph-name="z" horiz-adv-x="520" d="M480 10L470 0H50L40 10V120L50 140L280 370V380H60L50 390V490L60 500H460L470 490V380L460 360L230 130V120H470L480 110V10Z" />
<glyph unicode="{" glyph-name="braceleft" horiz-adv-x="470" d="M240 260V240Q310 226 310 120V-40Q310 -62 319 -71T350 -80H380L390 -90V-190L380 -200H320Q257 -200 214 -166T170 -50V120Q170 163 150 181T90 200L80 210V290L90 300Q130 300 150 318T170
380V550Q170 632 213 666T320 700H380L390 690V590L380 580H350Q328 580 319 571T310 540V380Q310 274 240 260Z" />
<glyph unicode="|" glyph-name="bar" horiz-adv-x="380" d="M260 -190L250 -200H130L120 -190V690L130 700H250L260 690V-190Z" />
<glyph unicode="}" glyph-name="braceright" horiz-adv-x="470" d="M230 240V260Q160 274 160 380V540Q160 562 151 571T120 580H90L80 590V690L90 700H150Q213 700 256 666T300 550V380Q300 337 320 319T380 300L390 290V210L380 200Q340 200 320 182T300 120V-50Q300
-132 257 -166T150 -200H90L80 -190V-90L90 -80H120Q142 -80 151 -71T160 -40V120Q160 226 230 240Z" />
<glyph unicode="~" glyph-name="asciitilde" horiz-adv-x="660" d="M70 170L60 180Q60 260 102 310T230 360Q267 360 302 346T358 315T401 284T440 270Q480 270 480 320L490 330H590L600 320Q600 242 555 191T430 140Q393 140 358 154T302 185T259 216T220 230Q180
230 180 180L170 170H70Z" />
</font>
</defs>
</svg>
